<svg xmlns="http://www.w3.org/2000/svg" viewBox="0 0 210 175"><defs><style>.a{fill:#0071bc;}.b{fill:none;stroke:#000;stroke-miterlimit:10;stroke-width:0.5px;}</style></defs><title>kani-kani--full</title><path class="a" d="M58.15,125.16a1.25,1.25,0,0,1-.49,1,1.36,1.36,0,0,1-.86.32,1.18,1.18,0,0,1-1-.49l-5.13-6.34-1.35,1.19V125a1.32,1.32,0,1,1-2.65,0V106.53a1.32,1.32,0,1,1,2.65,0v11l6.56-5.86a1.14,1.14,0,0,1,.84-0.35,1.13,1.13,0,0,1,.92.43,1.14,1.14,0,0,1,.35.84,1.13,1.13,0,0,1-.43.92l-5,4.43,5.24,6.43A1.16,1.16,0,0,1,58.15,125.16Z" transform="translate(0 -0.11)"/><path class="a" d="M71.17,112.41a7.27,7.27,0,0,1,2.67,2.7,7.53,7.53,0,0,1,1,3.82v6a1.38,1.38,0,1,1-2.75,0v-1a6.8,6.8,0,0,1-8.73,1.48,6.81,6.81,0,0,1-2.48-2.69,8.05,8.05,0,0,1-.9-3.82,7.61,7.61,0,0,1,1-3.82,7.11,7.11,0,0,1,2.69-2.7,7.47,7.47,0,0,1,3.79-1A7.33,7.33,0,0,1,71.17,112.41Zm-1.32,10.91a4.68,4.68,0,0,0,1.71-1.81,5.33,5.33,0,0,0,.62-2.58,5.41,5.41,0,0,0-.62-2.59,4.76,4.76,0,0,0-6.6-1.82,4.75,4.75,0,0,0-1.73,1.82,5.31,5.31,0,0,0-.63,2.59,5.23,5.23,0,0,0,.63,2.58A4.77,4.77,0,0,0,65,123.31,4.85,4.85,0,0,0,69.85,123.31Z" transform="translate(0 -0.11)"/><path class="a" d="M89.63,112.2A5.71,5.71,0,0,1,92,114.57a7.78,7.78,0,0,1,.84,3.74v6.64a1.38,1.38,0,1,1-2.75,0V118.3a4,4,0,0,0-4.29-4.43,4.61,4.61,0,0,0-2.07.46,3.66,3.66,0,0,0-1.46,1.24,3.07,3.07,0,0,0-.53,1.75v7.61a1.36,1.36,0,0,1-.38,1,1.38,1.38,0,0,1-2.38-1v-12a1.33,1.33,0,0,1,.39-1,1.37,1.37,0,0,1,2.36,1v0.3a6,6,0,0,1,2.05-1.34A7.2,7.2,0,0,1,89.63,112.2Z" transform="translate(0 -0.11)"/><path class="a" d="M97.74,108.6a1.76,1.76,0,1,1,1.26.53A1.72,1.72,0,0,1,97.74,108.6ZM98,125.91a1.34,1.34,0,0,1-.39-1v-12a1.33,1.33,0,0,1,.39-1,1.37,1.37,0,0,1,2.36,1v12a1.36,1.36,0,0,1-.38,1A1.45,1.45,0,0,1,98,125.91Z" transform="translate(0 -0.11)"/><path class="a" d="M26.07,91.64c18.45-5.72,44.16-27.88,44.79-50.38,0.73-26.18-27.1-36.9-27.1-36.9S46.11,33,32.53,47.55c0,0-10.21-26.62,3.85-47.44,0,0-26.68,9.87-35,35.16S26.07,91.64,26.07,91.64Z" transform="translate(0 -0.11)"/><path class="a" d="M81.29,90.7c-31.67,20.83-54,2.05-54,2.05S40.83,89.9,51.14,79.62C51.14,79.62,60.24,93.39,81.29,90.7Z" transform="translate(0 -0.11)"/><path class="a" d="M48.49,175c-25.53-27.28-8.15-50.26-8.15-50.26a49.16,49.16,0,0,0,16.53,20.87S43.32,155.6,48.49,175Z" transform="translate(0 -0.11)"/><path class="a" d="M76,175.11C54.85,164,60,147.06,60,147.06a32.69,32.69,0,0,0,14.39,9.06S68.63,164.7,76,175.11Z" transform="translate(0 -0.11)"/><path class="a" d="M92.17,68.68a9.41,9.41,0,0,1,1.76.17,3.8,3.8,0,0,0-2.81,3.59,4,4,0,0,0,8,0,3.55,3.55,0,0,0-.06-0.63A8,8,0,0,1,101,77,8.84,8.84,0,1,1,92.17,68.68Z" transform="translate(0 -0.11)"/><path d="M152.15,124.35l5.24-6.43-5-4.43a1.13,1.13,0,0,1-.43-0.92,1.15,1.15,0,0,1,.35-0.84,1.13,1.13,0,0,1,.92-0.43,1.14,1.14,0,0,1,.84.35l6.56,5.86v-11a1.32,1.32,0,1,1,2.65,0V125a1.32,1.32,0,1,1-2.65,0v-4.13l-1.35-1.19L154.17,126a1.17,1.17,0,0,1-1,.49,1.36,1.36,0,0,1-.87-0.32,1.25,1.25,0,0,1-.49-1A1.15,1.15,0,0,1,152.15,124.35Z" transform="translate(0 -0.11)"/><path d="M142.59,111.42a7.47,7.47,0,0,1,3.79,1,7.11,7.11,0,0,1,2.69,2.7,7.62,7.62,0,0,1,1,3.82,8.05,8.05,0,0,1-.91,3.82,6.8,6.8,0,0,1-2.48,2.69,6.59,6.59,0,0,1-3.52,1,6.64,6.64,0,0,1-5.21-2.46v1a1.38,1.38,0,1,1-2.75,0v-6a7.54,7.54,0,0,1,1-3.82A7.28,7.28,0,0,1,142.59,111.42Zm0,12.55a4.62,4.62,0,0,0,2.44-.66,4.78,4.78,0,0,0,1.73-1.81,5.24,5.24,0,0,0,.63-2.58,5.32,5.32,0,0,0-.63-2.59,4.76,4.76,0,0,0-1.73-1.82,4.7,4.7,0,0,0-6.6,1.82,5.41,5.41,0,0,0-.62,2.59,5.33,5.33,0,0,0,.62,2.58,4.68,4.68,0,0,0,1.71,1.81A4.62,4.62,0,0,0,142.59,124Z" transform="translate(0 -0.11)"/><path d="M123.72,111.39a6.81,6.81,0,0,1,2.54.47,6,6,0,0,1,2.05,1.34v-0.3a1.4,1.4,0,0,1,2.36-1,1.33,1.33,0,0,1,.39,1v12a1.4,1.4,0,0,1-2.38,1,1.37,1.37,0,0,1-.38-1v-7.61a3.08,3.08,0,0,0-.53-1.75,3.66,3.66,0,0,0-1.46-1.24,4.61,4.61,0,0,0-2.07-.46A4,4,0,0,0,120,118.3v6.64a1.38,1.38,0,1,1-2.75,0V118.3a7.77,7.77,0,0,1,.84-3.74,5.71,5.71,0,0,1,2.32-2.36A6.87,6.87,0,0,1,123.72,111.39Z" transform="translate(0 -0.11)"/><path d="M111,109.13a1.8,1.8,0,1,1,1.26-.53A1.72,1.72,0,0,1,111,109.13Zm0,17.17a1.32,1.32,0,0,1-1-.39,1.36,1.36,0,0,1-.38-1v-12a1.4,1.4,0,0,1,2.36-1,1.33,1.33,0,0,1,.39,1v12A1.34,1.34,0,0,1,111,126.3Z" transform="translate(0 -0.11)"/><path d="M183.93,91.64c-18.45-5.72-44.16-27.88-44.79-50.38-0.73-26.18,27.1-36.9,27.1-36.9S163.89,33,177.47,47.55c0,0,10.21-26.62-3.85-47.44,0,0,26.68,9.87,35,35.16S183.93,91.64,183.93,91.64Z" transform="translate(0 -0.11)"/><path d="M128.71,90.7c31.67,20.83,54,2.05,54,2.05s-13.58-2.86-23.89-13.13C158.86,79.62,149.76,93.39,128.71,90.7Z" transform="translate(0 -0.11)"/><path d="M161.51,175c25.53-27.28,8.15-50.26,8.15-50.26a49.16,49.16,0,0,1-16.53,20.87S166.68,155.6,161.51,175Z" transform="translate(0 -0.11)"/><path d="M134,175.11c21.14-11.08,16-28.05,16-28.05a32.69,32.69,0,0,1-14.39,9.06S141.37,164.7,134,175.11Z" transform="translate(0 -0.11)"/><path d="M117.83,68.68a9.41,9.41,0,0,0-1.76.17,3.8,3.8,0,0,1,2.81,3.59,4,4,0,0,1-8,0,3.55,3.55,0,0,1,.06-0.63A8,8,0,0,0,109,77,8.84,8.84,0,1,0,117.83,68.68Z" transform="translate(0 -0.11)"/><circle class="b" cx="169.71" cy="171.97" r="2.56"/><path d="M169,173.45a1.45,1.45,0,0,1-.56-0.56,1.62,1.62,0,0,1-.2-0.8,1.68,1.68,0,0,1,.19-0.81,1.41,1.41,0,0,1,.55-0.56,1.56,1.56,0,0,1,.79-0.2,1.41,1.41,0,0,1,1.11.51,0.21,0.21,0,0,1,.06.15,0.25,0.25,0,0,1-.12.21,0.22,0.22,0,0,1-.13,0,0.28,0.28,0,0,1-.22-0.1,0.9,0.9,0,0,0-.31-0.22,1,1,0,0,0-.38-0.07,0.92,0.92,0,0,0-.71.29,1.09,1.09,0,0,0-.27.77,1.15,1.15,0,0,0,.13.55,0.94,0.94,0,0,0,.36.38,1,1,0,0,0,.52.14,0.94,0.94,0,0,0,.62-0.2,0.35,0.35,0,0,1,.21-0.08,0.24,0.24,0,0,1,.15.05,0.26,0.26,0,0,1,.11.2,0.21,0.21,0,0,1-.07.15,1.44,1.44,0,0,1-1,.38A1.59,1.59,0,0,1,169,173.45Z" transform="translate(0 -0.11)"/></svg>